<?xml version="1.0" encoding="utf-8"?>
<!-- Generator: Adobe Illustrator 14.0.0, SVG Export Plug-In . SVG Version: 6.00 Build 43363)  -->
<!DOCTYPE svg PUBLIC "-//W3C//DTD SVG 1.1//EN" "http://www.w3.org/Graphics/SVG/1.1/DTD/svg11.dtd">
<svg version="1.1" xmlns="http://www.w3.org/2000/svg" xmlns:xlink="http://www.w3.org/1999/xlink" x="0px" y="0px" width="702px"
	 height="729.81px" viewBox="0 0 702 729.81" enable-background="new 0 0 702 729.81" xml:space="preserve">
<g id="Calque_1" display="none">
</g>
<g id="Calque_2">
	<path fill="#FF0000" d="M285.064,251.439l57.514-184.391l42.292,125.184l23.685-11.843c0,0,1.694-82.046,96.423-87.966
		l-27.911-76.124H216.552l-84.583,252.058h133.641L285.064,251.439z"/>
	<path fill="#009C00" d="M418.705,188.848c0,0-118.418,61.747-147.176,89.659H41.467c0,0,0,34.68,41.445,38.061
		c0,0-40.598,5.917-41.445,38.908h131.949c0,0-27.067,34.68-27.067,39.754h205.966l48.629,162.397h41.441L389.945,373.24
		l32.988-16.921l-172.549-0.844c0,0,32.145-71.052,201.308-159.016c0,0-6.557-81.409,89.867-83.102c0,0,10.209-2.419,18.664,0.119
		C560.224,113.477,433.087,71.276,418.705,188.848z"/>
	<polygon fill="#009C00" points="434.777,424.252 470.511,557.627 514.281,557.627 467.973,410.875 	"/>
	<path fill="#FF0000" d="M560.224,113.477c-6.046-1.893-12.033-1.723-18.877-1.598c-96.424,1.692-89.654,84.581-89.654,84.581
		c-169.164,87.964-201.308,159.016-201.308,159.016l172.549,0.844l-32.988,16.921l15.284,53.748c0,0,112.438,5.455,169.952-115.495
		c0,0,21.994-64.284,23.684-84.584c0,0,2.537-24.527,20.3-36.369l-28.759-16.07l25.374-16.072
		c-9.838-9.137-19.813-18.09-29.97-26.873c-6.243-5.399-12.26-11.29-19.49-15.39C564.258,114.968,562.235,114.105,560.224,113.477z"
		/>
	<path fill="#009C00" d="M565.031,171.933c0,16.347-13.44,29.603-30.023,29.603c-16.588,0-30.029-13.256-30.029-29.603
		c0-16.351,13.441-29.604,30.029-29.604C551.591,142.328,565.031,155.582,565.031,171.933z"/>
	<path fill="#FFFFFF" d="M528.555,179.331l17.099-35.053c0,0,13.768,4.277,18.158,19.348L528.555,179.331z"/>
	<path fill="#009C00" d="M615.78,158.398l-25.374,16.072l28.759,16.07c0,0,49.901-9.831,62.272-16.07
		C681.438,174.47,675.153,165.638,615.78,158.398z"/>
	<path fill="#FF0000" d="M484.467,420.391c0,0,64.07-23.471,96.424-95.155l81.198,232.391H526.334L484.467,420.391z"/>
	<polygon fill="#FF0000" points="189.485,557.627 32.797,557.627 98.137,365.984 150.789,365.984 131.969,407.703 236.428,407.703 	
		"/>
	<g>
		<path fill="#FF0000" d="M72.683,685.77L65.149,710H33.22l41.955-119.647h39.693L157.556,710h-33.2l-8.25-24.443L72.683,685.77z
			 M109.327,660.188l-7.266-18.495c-2.077-5.176-4.156-11.642-5.875-16.822h-0.345c-1.732,5.181-3.467,11.776-5.367,16.822
			l-6.911,18.495H109.327z"/>
		<path fill="#FF0000" d="M258.208,681.116c0,11.181-0.396,21.713,0,28.884h-28.546l-0.022-13.967h-0.597
			C225.268,701.268,216.139,710,198.678,710c-19.843,0-34.136-10.824-34.136-37.204v-52.048l31.842,0.024
			c0,0-0.158,48.634-0.158,48.688c-0.018,5.203,1.605,11.552,6.068,14.67c4.23,2.958,9.964,2.824,14.342,0.273
			c3.801-2.212,7.422-5.22,7.853-9.726c0.325-3.39-0.037-7.8,0.094-11.596c0.379-11.201,0.246-22.48,0.161-33.687
			c-0.022-2.884,0.042-5.769,0.055-8.647h33.408V681.116z"/>
		<path fill="#FF0000" d="M345.498,706.77c-5.355,2.278-12.796,3.062-24.31,3.062c-31.356,0-51.393-16.94-51.393-43.677
			c0-35.153,18.697-47.523,54.811-47.523c7.942,0,14.321,2.434,20.672,4.54l-1.661,20.627c-3.571-1.393-8.936-2.617-16.87-2.617
			c-15.877,0-26.192,9.956-26,23.938c0,15.543,11.909,23.918,26.599,23.918c7.141,0,12.699-1.035,17.264-2.785L345.498,706.77z"/>
		<path fill="#FF0000" d="M359.525,594.525l30.167,0.317v38.13c0,0,0.396,0.005,0.401,0c2.656-1.753,5.086-5.639,6.398-7.15
			c2.672-3.082,6.29-4.768,10.12-5.997c17.029-5.467,36.778,3.831,42.483,20.891c1.844,5.51,2.513,11.789,2.513,17.589
			c0,0.005,0,49.776,0,49.776h-30.163v-46.986c0-11.182-4.371-18.863-15.68-18.863c-7.935,0-12.896,4.539-15.077,9.432
			c-0.798,1.581-0.996,3.84-0.996,5.759v50.659h-30.167V594.525z"/>
		<path fill="#FF0000" d="M551.293,687.515c0,8.02,0.396,15.858,1.591,20.566H525.7l-1.789-8.543h-0.595
			C516.963,706.337,507.041,710,495.528,710c-19.65,0-33.899-12.697-33.899-26.302c0-22.144,12.9-32.292,59.502-32.456v-1.041
			c0-4.713-2.775-11.156-17.658-11.156c-9.922,0-24.394,2.846-30.742,6.339l-1.61-16.99c6.745-3.304,20.047-7.665,37.71-7.665
			c32.348,0,42.463,16.735,42.463,36.965V687.515z M522.009,667.811c-18.665,0-33.137,3.304-33.137,13.426
			c0,6.799,6.062,10.109,13.991,10.109c8.638,0,16.102-4.36,18.44-9.769c0.466-1.393,0.705-2.969,0.705-4.53V667.811z"/>
		<path fill="#FF0000" d="M570.007,648.991c0-10.818-0.396-19.863-0.793-27.68h26.192l1.393,12.079h0.595
			c3.97-5.68,13.698-14.025,29.97-14.025c19.844,0,34.726,11.89,34.726,37.442v51.273h-31.718l-0.317-48.533
			c0-11.182-3.49-16.177-14.402-16.177c-8.331,0-12.301,2.964-14.481,7.935c-0.803,1.774-0.996,4.263-0.996,6.745v50.03h-30.167
			V648.991z"/>
	</g>
</g>
</svg>
